<?xml version="1.0" encoding="UTF-8"?>
<svg width="33px" height="30px" viewBox="0 0 33 30" version="1.1" xmlns="http://www.w3.org/2000/svg" xmlns:xlink="http://www.w3.org/1999/xlink">
    <!-- Generator: Sketch 52.6 (67491) - http://www.bohemiancoding.com/sketch -->
    <title>Icon | Camera | Preta</title>
    <desc>Created with Sketch.</desc>
    <g id="Admin" stroke="none" stroke-width="1" fill="none" fill-rule="evenodd">
        <g id="Perfil-Empresa-|-Cadastrando-Filial" transform="translate(-291.000000, -589.000000)" fill="#4A4A4A">
            <g id="Group-18" transform="translate(172.000000, 369.000000)">
                <g id="Group-15" transform="translate(47.000000, 60.000000)">
                    <g id="Group-14" transform="translate(1.000000, 90.000000)">
                        <g id="Group-12" transform="translate(0.000000, 20.000000)">
                            <g id="Group-4" transform="translate(42.000000, 50.000000)">
                                <g id="Icon-|-Camera-|-Preta" transform="translate(29.000000, 0.000000)">
                                    <g id="Group-3">
                                        <path d="M16.5,9.33333333 C12.4904127,9.33333333 9.24,12.6165785 9.24,16.6666667 C9.24,20.7167548 12.4904127,24 16.5,24 C20.5095873,24 23.76,20.7167548 23.76,16.6666667 C23.7555178,12.6184553 20.5077292,9.33786083 16.5,9.33333333 Z M16.5,22.2857039 C13.4277245,22.2857039 10.9371532,19.7699752 10.9371532,16.6666667 C10.9371532,13.5633581 13.4277245,11.0476295 16.5,11.0476295 C19.5722755,11.0476295 22.0628468,13.5633581 22.0628468,16.6666667 C22.0594032,19.7685333 19.5708479,22.2822255 16.5,22.2857039 Z" id="Shape" fill-rule="nonzero"></path>
                                        <path d="M27.7200291,9.33333333 C27.186145,9.33332932 26.7048285,9.65817933 26.500518,10.1564055 C26.2962076,10.6546316 26.4091389,11.2281161 26.786652,11.6094424 C27.1641651,11.9907688 27.7319147,12.1048409 28.2251586,11.8984667 C28.7184025,11.6920925 29.040004,11.2059142 29.04,10.6666372 C29.0399891,9.93027837 28.4490244,9.33334431 27.7200291,9.33333333 Z" id="Shape" fill-rule="nonzero"></path>
                                        <path d="M29.1138137,5.10763773 L26.2412333,5.10763773 C25.186238,5.10763773 24.249632,3.97948515 23.9867393,2.93428368 L23.885312,2.53016135 C23.5103855,1.03989917 22.2169199,0.000415889744 20.7369433,0 L12.2630567,0 C10.7833332,0.000623595375 9.49012875,1.03986934 9.11503633,2.52981403 L9.01291967,2.93463481 C8.75036067,3.979634 7.81375467,5.10763773 6.75875933,5.10763773 L3.88618633,5.10763773 C1.74095419,5.11009645 0.00246128273,6.91961869 0,9.15260135 L0,25.2881827 C0.00239052092,27.5212262 1.74089585,29.330845 3.88618633,29.3333333 L29.1138137,29.3333333 C31.2591041,29.330845 32.9976095,27.5212262 33,25.2881827 L33,9.15260135 C32.9975387,6.91961869 31.2590458,5.11009645 29.1138137,5.10763773 Z M31.263166,25.2881827 C31.2618364,26.5232162 30.3003134,27.5240599 29.1138137,27.5254313 L3.88618633,27.5254313 C2.69968656,27.5240599 1.73816365,26.5232162 1.736834,25.2881827 L1.736834,9.15260135 C1.73816985,7.9175965 2.69971398,6.9168024 3.88618633,6.91551304 L6.75876667,6.91551304 C8.739181,6.91551304 10.2643457,5.10004259 10.6931,3.39226278 L10.7952203,2.98760612 C10.9700847,2.29284984 11.5730693,1.808227 12.2630493,1.80790203 L20.7369433,1.80790203 C21.427115,1.80804552 22.0303195,2.29281052 22.2051097,2.98779313 L22.3065553,3.39227805 C22.7363547,5.10022961 24.2611637,6.91552831 26.2412553,6.91552831 L29.1138283,6.91552831 C30.3003007,6.91681767 31.2618448,7.91761177 31.2631807,9.15261662 L31.263166,25.2881827 Z" id="Shape" fill-rule="nonzero"></path>
                                    </g>
                                </g>
                            </g>
                        </g>
                    </g>
                </g>
            </g>
        </g>
    </g>
</svg>