<svg xmlns="http://www.w3.org/2000/svg" width="19" height="18" fill="none" viewBox="0 0 19 18">
    <path fill="#fff" fill-rule="evenodd" d="M4.143 16.414l-2.7.579a1.19 1.19 0 0 1-1.135-.364 1.137 1.137 0 0 1-.236-1.179l.986-2.764A9.014 9.014 0 0 1 .287 8.38C.587 3.772 4.443.087 9.072.001a9.12 9.12 0 0 1 6.706 2.764 8.953 8.953 0 0 1 2.464 6.836c-.3 4.392-3.814 7.97-8.185 8.356l-.06.005c-.255.02-.494.038-.733.038a9.042 9.042 0 0 1-5.12-1.586zM9.114 1.715c-3.75.086-6.878 3.065-7.113 6.793a7.481 7.481 0 0 0 .664 3.621c.129.279.15.6.043.9l-.729 2.078 2.014-.428c.086-.022.172-.022.258-.022.257 0 .492.086.707.236a7.427 7.427 0 0 0 4.95 1.371c3.535-.321 6.385-3.214 6.62-6.77a7.136 7.136 0 0 0-1.992-5.529 7.296 7.296 0 0 0-5.422-2.25z" clip-rule="evenodd"/>
</svg>
