<svg xmlns="http://www.w3.org/2000/svg" width="24" height="24" viewBox="0 0 24 24">
    <path fill="#FFF" fill-rule="nonzero" stroke="#FFF" stroke-width=".5" d="M1.492 13.01l-.478 2.306a.779.779 0 0 0 .603.92l2.438.506c.146.03.297 0 .422-.081l.785-.51a.561.561 0 0 0 .225-.35l.249-1.151.673.137a1.055 1.055 0 0 0 1.248-.817l.14-.674 1.153.225a.561.561 0 0 0 .415-.083l.765-.505c.395.233.816.418 1.255.55.267.077.542.126.82.146.062.141.13.28.206.417l-3.816 5.427a.875.875 0 0 0-.148.66l.406 2.327a.779.779 0 0 0 .896.638l2.45-.438a.561.561 0 0 0 .364-.224l.537-.763a.561.561 0 0 0 .094-.416l-.193-1.162.673-.117c.573-.1.957-.646.858-1.219l-.117-.673 1.154-.224a.561.561 0 0 0 .356-.225l.526-.752c2.7.43 5.32-1.137 6.219-3.719a5.488 5.488 0 0 0-.35-4.509.564.564 0 1 0-.992.537c.607 1.1.711 2.408.285 3.59a4.522 4.522 0 0 1-5.29 2.943.561.561 0 0 0-.586.225l-.6.873-1.326.249a.705.705 0 0 0-.572.814l.175 1.01-1.015.171a.705.705 0 0 0-.574.81l.224 1.347-.278.375-1.885.327-.328-1.885 3.977-5.642a.561.561 0 0 0 .014-.627 4.502 4.502 0 0 1 5.907-6.41l-.873 1.11a1.721 1.721 0 1 0-.209 3.339 1.72 1.72 0 0 0 1.122-2.693l1.65-2.099a3.658 3.658 0 0 0-5.405-4.893l-.745.714a5.624 5.624 0 0 0-7.577 5.97L1.873 12.45a.875.875 0 0 0-.381.56zm17.08-2.544a.6.6 0 1 1-.98-.692.6.6 0 0 1 .98.692zm-2.056-7.525a2.536 2.536 0 0 1 3.743 3.4l-.098.126a5.577 5.577 0 0 0-2.038-.707 5.716 5.716 0 0 0-2.065-2.382l.458-.437zM2.569 13.335L8.337 9.55a.561.561 0 0 0 .245-.582 4.505 4.505 0 0 1 8.252-3.236 5.627 5.627 0 0 0-5.016 6.708c-.036 0-.076-.015-.112-.027a4.509 4.509 0 0 1-1.264-.606.561.561 0 0 0-.626 0l-.88.573-1.324-.258a.705.705 0 0 0-.832.547l-.21 1.012-1.002-.224a.705.705 0 0 0-.833.543l-.287 1.331-.393.258-1.872-.381.386-1.874z"/>
</svg>
