<svg xmlns="http://www.w3.org/2000/svg" width="22" height="20" fill="none" viewBox="0 0 22 20">
    <path fill="#fff" fill-rule="evenodd" d="M17.19 1.064C14.253.2 12.662.195 11.26.192l-.907-.004c-1.264 0-2.836.063-5.499.822C1.575 1.944.206 4.292.202 5.341L.194 6.964C.192 7.524.4 8.055.762 8.42c.345.347.809.53 1.339.53.064 0 .135-.006.205-.013h.011l-.98 6.861-.01.135a3.608 3.608 0 0 0 3.604 3.603h12.138a3.608 3.608 0 0 0 3.603-3.603l-.98-6.919.045.004c.054.005.107.01.156.01 1.245 0 1.9-.991 1.905-1.97l.007-1.623c.004-1.05-1.345-3.41-4.615-4.371zm-.12 16.576H4.93a1.709 1.709 0 0 1-1.705-1.648L4.283 8.59c.81-.169 1.649-.357 2.19-.478C8.075 7.75 8.05 6.474 8.04 6.054l-.002-.205c0-.12 0-.346.025-.474.482-.135 2.004-.29 2.94-.29h.001c.895.004 2.457.176 2.938.315.024.128.022.356.02.476l-.003.204c-.012.42-.049 1.696 1.561 2.073.538.126 1.388.324 2.206.501l1.048 7.338a1.709 1.709 0 0 1-1.706 1.648zM19.89 7.13a.329.329 0 0 0 .012-.08l.008-1.594c-.064-.315-.82-1.86-3.253-2.575-2.678-.788-4.062-.791-5.4-.795l-.902-.003c-1.188 0-2.551.057-4.98.749-2.438.694-3.208 2.232-3.275 2.546l-.007 1.593c0 .029.004.058.01.08a.606.606 0 0 0 .071-.004c.846-.106 2.944-.577 3.854-.782l.012-.002c.045-.01.08-.02.107-.029 0-.046 0-.1-.002-.142v-.001l-.002-.158v-.085c0-.509 0-1.697 1.052-2.173.819-.37 3.185-.487 3.782-.487.612.003 3.027.14 3.85.52 1.05.486 1.039 1.676 1.034 2.185l-.001.082-.003.154v.006l-.001.022-.002.121c.023.008.052.016.09.025l.013.003c.92.215 3.015.704 3.862.819a.535.535 0 0 0 .072.005z" clip-rule="evenodd"/>
    <path fill="#fff" fill-rule="evenodd" d="M6.448 11.95A4.557 4.557 0 0 1 11 7.398a4.557 4.557 0 0 1 4.552 4.552A4.557 4.557 0 0 1 11 16.502a4.557 4.557 0 0 1-4.552-4.552zm1.897 0A2.658 2.658 0 0 0 11 14.605a2.658 2.658 0 0 0 2.655-2.655A2.658 2.658 0 0 0 11 9.295a2.658 2.658 0 0 0-2.655 2.655z" clip-rule="evenodd"/>
</svg>
