<svg width="16px" height="16px" viewBox="0 0 16 16" version="1.1" xmlns="http://www.w3.org/2000/svg" xmlns:xlink="http://www.w3.org/1999/xlink">
    <g id="Admin" stroke="none" stroke-width="1" fill="none" fill-rule="evenodd">
        <g id="Perfil-Empresa-|-Cadastrando-Filial" transform="translate(-590.000000, -819.000000)" fill="#4A4A4A">
            <g id="Group-18" transform="translate(172.000000, 369.000000)">
                <g id="Group-15" transform="translate(47.000000, 60.000000)">
                    <g id="Group-16" transform="translate(0.000000, 345.000000)">
                        <g id="Group-8" transform="translate(338.000000, 20.000000)">
                            <path d="M41.8872466,31.577381 L47.2953668,31.577381 C47.9364116,31.577381 48.4560811,32.0970504 48.4560811,32.7380952 C48.4560811,33.37914 47.9364116,33.8988095 47.2953668,33.8988095 L41.8872466,33.8988095 L41.8872466,39.3169844 C41.8872466,39.9571962 41.3682524,40.4761905 40.7280405,40.4761905 C40.0878287,40.4761905 39.5688345,39.9571962 39.5688345,39.3169844 L39.5688345,33.8988095 L34.1607143,33.8988095 C33.5196695,33.8988095 33,33.37914 33,32.7380952 C33,32.0970504 33.5196695,31.577381 34.1607143,31.577381 L39.5688345,31.577381 L39.5688345,26.1592061 C39.5688345,25.5189942 40.0878287,25 40.7280405,25 C41.3682524,25 41.8872466,25.5189942 41.8872466,26.1592061 L41.8872466,31.577381 Z" id="Combined-Shape"></path>
                        </g>
                    </g>
                </g>
            </g>
        </g>
    </g>
</svg>