<svg xmlns="http://www.w3.org/2000/svg" width="24" height="24" viewBox="0 0 24 24">
    <path fill="#FFF" fill-rule="nonzero" stroke="#FFF" stroke-width=".5" d="M23 12c0-6.065-4.935-11-11-11S1 5.935 1 12c0 3.313 1.474 6.286 3.798 8.304.028.032.06.059.095.082A10.949 10.949 0 0 0 12 23c2.708 0 5.189-.985 7.107-2.614a.486.486 0 0 0 .094-.081A10.975 10.975 0 0 0 23 12zM1.978 12C1.978 6.474 6.474 1.978 12 1.978S22.022 6.474 22.022 12a9.991 9.991 0 0 1-2.981 7.124 7.697 7.697 0 0 0-4.71-4.327 4.823 4.823 0 0 0 2.49-4.217A4.827 4.827 0 0 0 12 5.758a4.827 4.827 0 0 0-4.821 4.822 4.823 4.823 0 0 0 2.49 4.217 7.696 7.696 0 0 0-4.71 4.327A9.99 9.99 0 0 1 1.978 12zM12 14.423h-.001a3.848 3.848 0 0 1-3.842-3.843A3.848 3.848 0 0 1 12 6.736a3.848 3.848 0 0 1 3.843 3.844 3.848 3.848 0 0 1-3.842 3.843H12zm-6.26 5.395c.933-2.615 3.459-4.417 6.259-4.417h.002c2.8 0 5.325 1.802 6.26 4.417A9.97 9.97 0 0 1 12 22.022a9.971 9.971 0 0 1-6.26-2.204z"/>
</svg>
