<svg xmlns="http://www.w3.org/2000/svg" width="16" height="16" fill="none" viewBox="0 0 16 16"><path fill="#fff" fill-rule="evenodd" d="M10.64 16c.691 0 1.246-.625 1.647-1.859L15.79 3.368c.334-1.022.268-1.931-.188-2.558-.572-.789-1.685-1.025-2.974-.604L1.86 3.711C.598 4.12-.028 4.689.001 5.4c.029.71.699 1.226 1.99 1.533l2.55.604c1.716.407 3.511 2.202 3.919 3.92l.605 2.551c.312 1.32.842 1.99 1.574 1.99zM2.29 5.67c-.479-.114-.757-.24-.9-.327.136-.1.402-.247.87-.4l10.77-3.505c.719-.233 1.293-.184 1.523.133.2.278.203.786.004 1.394L11.053 13.74c-.152.469-.3.735-.4.87-.087-.143-.212-.42-.325-.899l-.606-2.553C9.197 8.944 7.052 6.8 4.841 6.275l-2.55-.604z" clip-rule="evenodd"/></svg>