<svg xmlns="http://www.w3.org/2000/svg" width="64" height="90" viewBox="0 0 64 90"><g fill="#FFF" stroke="#FFF" stroke-width=".5"><path d="M4.6 58c0 15 12.3 27.3 27.3 27.3S59.2 73.1 59.2 58c0-7.5-3-14.2-7.9-19.2s-11.8-8.1-19.4-8.1c-7.6 0-14.5 3.1-19.4 8.1-4.9 5-7.9 11.7-7.9 19.2zm47.1-24.2v-9.3c0-10.9-8.9-19.8-19.8-19.8s-19.8 8.9-19.8 19.8v9.3c5.4-4.4 12.3-7.1 19.8-7.1s14.4 2.7 19.8 7.1zm4 3.9c4.7 5.5 7.5 12.5 7.5 20.3 0 17.3-14 31.3-31.3 31.3S.6 75.3.6 58c0-7.7 2.8-14.8 7.5-20.3V24.5C8.1 11.4 18.8.7 31.9.7 45 .7 55.7 11.4 55.7 24.5v13.2z"/><path d="M50.2 57.1c2.4 0 2.4 3.7 0 3.7h-5.8c.1-.6.1-1.2.1-1.9 0-.6-.1-1.3-.1-1.9 1.9.1 3.9.1 5.8.1zm-6.7-12.4c1.7-1.7 4.4.9 2.7 2.7l-4.1 4.1c-.7-1-1.6-1.9-2.7-2.7 1.4-1.3 2.8-2.7 4.1-4.1zm2.7 25.9c1.7 1.7-1 4.4-2.7 2.7l-4.1-4.1c1-.8 1.9-1.6 2.7-2.6 1.3 1.3 2.7 2.7 4.1 4zm-12.4 1v5.8c0 2.4-3.8 2.4-3.8 0v-5.8c.6.1 1.2.1 1.9.1s1.2-.1 1.9-.1zm0-30.9v5.8c-.6-.1-1.2-.1-1.9-.1s-1.3 0-1.9.1v-5.8c0-2.4 3.8-2.4 3.8 0zm-9.5 28.5l-4.1 4.1c-1.7 1.7-4.4-1-2.7-2.7l4.1-4.1c.8 1.1 1.7 2 2.7 2.7zm-4.1-24.5l4.1 4.1c-1 .7-1.9 1.6-2.7 2.7l-4.1-4.1c-1.6-1.7 1-4.4 2.7-2.7zm-6.6 12.4h5.8c-.1.6-.1 1.2-.1 1.9 0 .6 0 1.3.1 1.9h-5.8c-2.5 0-2.5-3.8 0-3.8z"/></g></svg>