<svg width="33" height="30" viewBox="0 0 33 30" xmlns="http://www.w3.org/2000/svg"><g fill="#4A4A4A"><path d="M16.5 9.333c-4.01 0-7.26 3.284-7.26 7.334S12.49 24 16.5 24s7.26-3.283 7.26-7.333c-.004-4.049-3.252-7.33-7.26-7.334zm0 12.953c-3.072 0-5.563-2.516-5.563-5.62 0-3.103 2.49-5.618 5.563-5.618 3.072 0 5.563 2.515 5.563 5.619-.004 3.102-2.492 5.615-5.563 5.619zM27.72 9.333a1.32 1.32 0 0 0-1.22.823 1.343 1.343 0 0 0 .287 1.453 1.31 1.31 0 0 0 1.438.29c.493-.207.815-.693.815-1.232 0-.737-.591-1.334-1.32-1.334z"/><path d="M29.114 5.108H26.24c-1.055 0-1.991-1.129-2.254-2.174l-.102-.404C23.51 1.04 22.217 0 20.737 0h-8.474c-1.48 0-2.773 1.04-3.148 2.53l-.102.405c-.263 1.045-1.2 2.173-2.254 2.173H3.886C1.741 5.11.002 6.92 0 9.153v16.135c.002 2.233 1.74 4.043 3.886 4.045h25.228c2.145-.002 3.884-1.812 3.886-4.045V9.153c-.002-2.233-1.741-4.043-3.886-4.045zm2.15 20.18c-.002 1.235-.964 2.236-2.15 2.237H3.886c-1.186 0-2.148-1.002-2.15-2.237V9.153c.002-1.235.964-2.236 2.15-2.237H6.76c1.98 0 3.505-1.816 3.934-3.524l.102-.404c.175-.695.778-1.18 1.468-1.18h8.474c.69 0 1.293.485 1.468 1.18l.102.404c.43 1.708 1.954 3.524 3.934 3.524h2.873c1.186 0 2.148 1.002 2.15 2.237v16.135z"/></g></svg>